<mxfile host="app.diagrams.net" agent="Mozilla/5.0 (Windows NT 10.0; Win64; x64) AppleWebKit/537.36 (KHTML, like Gecko) Chrome/127.0.0.0 Safari/537.36" version="24.7.7">
  <diagram name="Page-1" id="c0bNA5dq0e9O0SaOKar9">
    <mxGraphModel dx="1674" dy="772" grid="1" gridSize="10" guides="1" tooltips="1" connect="1" arrows="1" fold="1" page="1" pageScale="1" pageWidth="850" pageHeight="1100" math="0" shadow="0">
      <root>
        <mxCell id="0" />
        <mxCell id="1" parent="0" />
        <mxCell id="ISLlNDZiq05lktbRmFr5-11" value="" style="rounded=0;whiteSpace=wrap;html=1;" vertex="1" parent="1">
          <mxGeometry x="180" y="60" width="570" height="530" as="geometry" />
        </mxCell>
        <mxCell id="ISLlNDZiq05lktbRmFr5-18" style="rounded=0;orthogonalLoop=1;jettySize=auto;html=1;exitX=0.5;exitY=0.5;exitDx=0;exitDy=0;exitPerimeter=0;entryX=0;entryY=0.5;entryDx=0;entryDy=0;" edge="1" parent="1" source="ISLlNDZiq05lktbRmFr5-1" target="ISLlNDZiq05lktbRmFr5-16">
          <mxGeometry relative="1" as="geometry" />
        </mxCell>
        <mxCell id="ISLlNDZiq05lktbRmFr5-19" style="rounded=0;orthogonalLoop=1;jettySize=auto;html=1;exitX=0.5;exitY=0.5;exitDx=0;exitDy=0;exitPerimeter=0;" edge="1" parent="1" source="ISLlNDZiq05lktbRmFr5-1" target="ISLlNDZiq05lktbRmFr5-17">
          <mxGeometry relative="1" as="geometry" />
        </mxCell>
        <mxCell id="ISLlNDZiq05lktbRmFr5-1" value="User" style="shape=umlActor;verticalLabelPosition=bottom;verticalAlign=top;html=1;outlineConnect=0;" vertex="1" parent="1">
          <mxGeometry x="80" y="470" width="30" height="60" as="geometry" />
        </mxCell>
        <mxCell id="ISLlNDZiq05lktbRmFr5-13" style="rounded=0;orthogonalLoop=1;jettySize=auto;html=1;exitX=0.5;exitY=0.5;exitDx=0;exitDy=0;exitPerimeter=0;entryX=0;entryY=0.5;entryDx=0;entryDy=0;" edge="1" parent="1" source="ISLlNDZiq05lktbRmFr5-5" target="ISLlNDZiq05lktbRmFr5-12">
          <mxGeometry relative="1" as="geometry" />
        </mxCell>
        <mxCell id="ISLlNDZiq05lktbRmFr5-5" value="Admin" style="shape=umlActor;verticalLabelPosition=bottom;verticalAlign=top;html=1;outlineConnect=0;" vertex="1" parent="1">
          <mxGeometry x="50" y="120" width="30" height="60" as="geometry" />
        </mxCell>
        <mxCell id="ISLlNDZiq05lktbRmFr5-9" value="&lt;p style=&quot;box-sizing: border-box; margin: 0px 0px 10px; padding: 0px; border: 0px; font-size: 18px; vertical-align: baseline; color: rgb(39, 50, 57); font-family: Nunito, sans-serif; letter-spacing: 0.162px; background-color: rgb(255, 255, 255); text-align: start;&quot; dir=&quot;ltr&quot;&gt;&lt;span style=&quot;box-sizing: border-box; margin: 0px; padding: 0px; border: 0px; vertical-align: baseline;&quot;&gt;The&lt;/span&gt;&lt;b style=&quot;box-sizing: border-box; margin: 0px; padding: 0px; border: 0px; vertical-align: baseline;&quot;&gt;&amp;nbsp;&lt;/b&gt;&lt;span style=&quot;box-sizing: border-box; margin: 0px; padding: 0px; border: 0px; vertical-align: baseline;&quot;&gt;Association Relationship represents a communication or interaction between an actor and a use case. It is depicted by a line connecting the actor to the use case. This relationship signifies that the actor is involved in the functionality described by the use case.&lt;/span&gt;&lt;/p&gt;&lt;div&gt;&lt;span style=&quot;box-sizing: border-box; margin: 0px; padding: 0px; border: 0px; vertical-align: baseline;&quot;&gt;&lt;br&gt;&lt;/span&gt;&lt;/div&gt;" style="text;html=1;align=center;verticalAlign=middle;whiteSpace=wrap;rounded=0;" vertex="1" parent="1">
          <mxGeometry x="35" y="800" width="390" as="geometry" />
        </mxCell>
        <mxCell id="ISLlNDZiq05lktbRmFr5-10" value="&lt;p style=&quot;box-sizing: border-box; margin: 0px 0px 10px; padding: 0px; border: 0px; font-size: 18px; vertical-align: baseline; color: rgb(39, 50, 57); font-family: Nunito, sans-serif; letter-spacing: 0.162px; background-color: rgb(255, 255, 255); text-align: start;&quot; dir=&quot;ltr&quot;&gt;&lt;span style=&quot;box-sizing: border-box; margin: 0px; padding: 0px; border: 0px; vertical-align: baseline;&quot;&gt;The&lt;/span&gt;&lt;b style=&quot;box-sizing: border-box; margin: 0px; padding: 0px; border: 0px; vertical-align: baseline;&quot;&gt;&amp;nbsp;&lt;/b&gt;&lt;span style=&quot;box-sizing: border-box; margin: 0px; padding: 0px; border: 0px; vertical-align: baseline;&quot;&gt;Association Relationship represents a communication or interaction between an actor and a use case. It is depicted by a line connecting the actor to the use case. This relationship signifies that the actor is involved in the functionality described by the use case.&lt;/span&gt;&lt;/p&gt;&lt;div&gt;&lt;span style=&quot;box-sizing: border-box; margin: 0px; padding: 0px; border: 0px; vertical-align: baseline;&quot;&gt;&lt;br&gt;&lt;/span&gt;&lt;/div&gt;" style="text;html=1;align=center;verticalAlign=middle;whiteSpace=wrap;rounded=0;" vertex="1" parent="1">
          <mxGeometry x="450" y="800" width="390" as="geometry" />
        </mxCell>
        <mxCell id="ISLlNDZiq05lktbRmFr5-12" value="Admin Login" style="ellipse;whiteSpace=wrap;html=1;" vertex="1" parent="1">
          <mxGeometry x="220" y="125" width="120" height="50" as="geometry" />
        </mxCell>
        <mxCell id="ISLlNDZiq05lktbRmFr5-24" style="rounded=0;orthogonalLoop=1;jettySize=auto;html=1;exitX=1;exitY=0.5;exitDx=0;exitDy=0;entryX=0;entryY=0.5;entryDx=0;entryDy=0;" edge="1" parent="1" source="ISLlNDZiq05lktbRmFr5-16" target="ISLlNDZiq05lktbRmFr5-21">
          <mxGeometry relative="1" as="geometry" />
        </mxCell>
        <mxCell id="ISLlNDZiq05lktbRmFr5-27" value="Include" style="edgeLabel;html=1;align=center;verticalAlign=middle;resizable=0;points=[];" vertex="1" connectable="0" parent="ISLlNDZiq05lktbRmFr5-24">
          <mxGeometry x="0.0317" y="-4" relative="1" as="geometry">
            <mxPoint as="offset" />
          </mxGeometry>
        </mxCell>
        <mxCell id="ISLlNDZiq05lktbRmFr5-25" style="rounded=0;orthogonalLoop=1;jettySize=auto;html=1;exitX=1;exitY=0.5;exitDx=0;exitDy=0;" edge="1" parent="1" source="ISLlNDZiq05lktbRmFr5-16" target="ISLlNDZiq05lktbRmFr5-22">
          <mxGeometry relative="1" as="geometry" />
        </mxCell>
        <mxCell id="ISLlNDZiq05lktbRmFr5-28" value="Include" style="edgeLabel;html=1;align=center;verticalAlign=middle;resizable=0;points=[];" vertex="1" connectable="0" parent="ISLlNDZiq05lktbRmFr5-25">
          <mxGeometry x="0.0434" relative="1" as="geometry">
            <mxPoint as="offset" />
          </mxGeometry>
        </mxCell>
        <mxCell id="ISLlNDZiq05lktbRmFr5-26" style="rounded=0;orthogonalLoop=1;jettySize=auto;html=1;exitX=1;exitY=0.5;exitDx=0;exitDy=0;entryX=0;entryY=0.5;entryDx=0;entryDy=0;" edge="1" parent="1" source="ISLlNDZiq05lktbRmFr5-16" target="ISLlNDZiq05lktbRmFr5-23">
          <mxGeometry relative="1" as="geometry" />
        </mxCell>
        <mxCell id="ISLlNDZiq05lktbRmFr5-29" value="Include" style="edgeLabel;html=1;align=center;verticalAlign=middle;resizable=0;points=[];" vertex="1" connectable="0" parent="ISLlNDZiq05lktbRmFr5-26">
          <mxGeometry x="-0.0926" y="1" relative="1" as="geometry">
            <mxPoint x="-1" as="offset" />
          </mxGeometry>
        </mxCell>
        <mxCell id="ISLlNDZiq05lktbRmFr5-16" value="User Login" style="ellipse;whiteSpace=wrap;html=1;" vertex="1" parent="1">
          <mxGeometry x="200" y="360" width="120" height="40" as="geometry" />
        </mxCell>
        <mxCell id="ISLlNDZiq05lktbRmFr5-17" value="SignUp" style="ellipse;whiteSpace=wrap;html=1;" vertex="1" parent="1">
          <mxGeometry x="230" y="530" width="120" height="40" as="geometry" />
        </mxCell>
        <mxCell id="ISLlNDZiq05lktbRmFr5-21" value="Step By Step" style="ellipse;whiteSpace=wrap;html=1;" vertex="1" parent="1">
          <mxGeometry x="400" y="270" width="120" height="40" as="geometry" />
        </mxCell>
        <mxCell id="ISLlNDZiq05lktbRmFr5-22" value="Community" style="ellipse;whiteSpace=wrap;html=1;" vertex="1" parent="1">
          <mxGeometry x="405" y="370" width="120" height="40" as="geometry" />
        </mxCell>
        <mxCell id="ISLlNDZiq05lktbRmFr5-23" value="Chatbot" style="ellipse;whiteSpace=wrap;html=1;" vertex="1" parent="1">
          <mxGeometry x="405" y="460" width="120" height="40" as="geometry" />
        </mxCell>
      </root>
    </mxGraphModel>
  </diagram>
</mxfile>
